<svg width="137" height="137" viewBox="0 0 137 137" fill="none" xmlns="http://www.w3.org/2000/svg">
<g clip-path="url(#clip0_244_1363)">
<path d="M44.2044 36.1126C41.3082 34.4994 37.7829 34.2945 34.4041 35.5431C31.0254 36.7917 28.0699 39.3914 26.1878 42.7704C24.3058 46.1493 23.6513 50.0307 24.3685 53.5607C25.0856 57.0906 27.1156 59.98 30.0118 61.5932C32.9081 63.2064 36.4333 63.4113 39.8121 62.1627C43.1908 60.9141 46.1463 58.3144 48.0284 54.9354C49.9105 51.5565 50.5649 47.6751 49.8478 44.1451C49.1306 40.6152 47.1007 37.7258 44.2044 36.1126ZM106.086 70.5803C103.19 68.9671 99.6645 68.7623 96.2858 70.0109C92.907 71.2594 89.9515 73.8592 88.0694 77.2381C86.1874 80.6171 85.5329 84.4984 86.2501 88.0284C86.9672 91.5584 88.9972 94.4478 91.8934 96.061C94.7897 97.6742 98.3149 97.879 101.694 96.6304C105.072 95.3819 108.028 92.7821 109.91 89.4032C111.792 86.0242 112.447 82.1429 111.729 78.6129C111.012 75.0829 108.982 72.1935 106.086 70.5803ZM74.57 24.4096C73.1359 23.6108 71.5323 23.1494 69.8508 23.0517C68.1693 22.954 66.4427 23.2219 64.7697 23.8401C63.0967 24.4584 61.51 25.4148 60.1003 26.6549C58.6905 27.8949 57.4853 29.3943 56.5534 31.0674C55.6215 32.7404 54.9812 34.5545 54.669 36.4059C54.3568 38.2573 54.3789 40.1098 54.734 41.8577C55.0891 43.6055 55.7703 45.2145 56.7385 46.5927C57.7068 47.971 58.9433 49.0915 60.3774 49.8902C61.8115 50.689 63.415 51.1504 65.0966 51.2481C66.7781 51.3458 68.5047 51.0779 70.1776 50.4597C71.8506 49.8415 73.4373 48.885 74.8471 47.645C76.2568 46.4049 77.4621 44.9055 78.394 43.2324C79.3259 41.5594 79.9662 39.7453 80.2783 37.8939C80.5905 36.0425 80.5684 34.19 80.2133 32.4421C79.8582 30.6943 79.1771 29.0853 78.2088 27.7071C77.2405 26.3288 76.0041 25.2083 74.57 24.4096ZM100.051 38.6022C98.6166 37.8034 97.013 37.342 95.3315 37.2443C93.6499 37.1466 91.9234 37.4145 90.2504 38.0327C88.5774 38.651 86.9907 39.6074 85.581 40.8475C84.1712 42.0875 82.966 43.5869 82.0341 45.26C81.1022 46.933 80.4618 48.7471 80.1497 50.5985C79.8375 52.4499 79.8596 54.3024 80.2147 56.0503C80.5698 57.7981 81.2509 59.4071 82.2192 60.7854C83.1875 62.1636 84.424 63.2841 85.858 64.0828C87.2921 64.8816 88.8957 65.343 90.5772 65.4407C92.2588 65.5384 93.9853 65.2705 95.6583 64.6523C97.3313 64.0341 98.918 63.0776 100.328 61.8376C101.737 60.5975 102.943 59.0981 103.875 57.4251C104.807 55.752 105.447 53.9379 105.759 52.0865C106.071 50.2351 106.049 48.3826 105.694 46.6347C105.339 44.8869 104.658 43.2779 103.689 41.8997C102.721 40.5214 101.485 39.4009 100.051 38.6022ZM81.7815 105.653C78.2557 111.983 70.9065 112.864 64.1942 109.125C55.7382 104.415 55.2924 99.5214 50.815 97.0276C46.3341 94.5317 41.8843 96.8178 33.7378 92.2803C26.716 88.3692 23.6603 81.5591 27.4396 74.774C32.7476 65.2442 41.8326 68.02 47.2573 67.5455C53.3038 67.0168 59.8512 59.1408 69.0607 64.2704C78.2665 69.398 75.0984 80.1292 77.4579 84.8154C80.0387 89.9349 87.4626 95.4531 81.7815 105.653Z" fill="#C0CDEF" fill-opacity="0.65"/>
</g>
<defs>
<clipPath id="clip0_244_1363">
<rect width="100" height="100" fill="white" transform="translate(49.5039 0.910156) rotate(29.1176)"/>
</clipPath>
</defs>
</svg>
