<svg width="93" height="93" viewBox="0 0 93 93" fill="none" xmlns="http://www.w3.org/2000/svg">
<g clip-path="url(#clip0_244_1365)">
<path d="M19.2044 48.5877C17.2415 49.6811 15.8657 51.6395 15.3798 54.032C14.8938 56.4245 15.3375 59.0551 16.6132 61.3452C17.8889 63.6352 19.892 65.3971 22.1821 66.2433C24.4721 67.0894 26.8614 66.9505 28.8243 65.857C30.7872 64.7636 32.1629 62.8052 32.6489 60.4127C33.1348 58.0202 32.6911 55.3896 31.4155 53.0995C30.1398 50.8095 28.1366 49.0476 25.8466 48.2015C23.5566 47.3553 21.1673 47.4942 19.2044 48.5877ZM61.1442 25.2251C59.1813 26.3185 57.8055 28.2769 57.3196 30.6694C56.8337 33.0619 57.2773 35.6925 58.553 37.9826C59.8287 40.2726 61.8319 42.0345 64.1219 42.8807C66.4119 43.7268 68.8012 43.5879 70.7641 42.4944C72.727 41.401 74.1027 39.4426 74.5887 37.0501C75.0746 34.6576 74.631 32.027 73.3553 29.737C72.0796 27.4469 70.0764 25.685 67.7864 24.8389C65.4964 23.9927 63.1071 24.1317 61.1442 25.2251ZM23.294 26.914C22.3221 27.4555 21.4841 28.2149 20.8278 29.1491C20.1716 30.0832 19.71 31.1737 19.4694 32.3583C19.2288 33.543 19.2139 34.7986 19.4255 36.0533C19.6371 37.3081 20.0712 38.5376 20.7028 39.6715C21.3345 40.8054 22.1514 41.8216 23.1069 42.662C24.0624 43.5025 25.1378 44.1506 26.2717 44.5696C27.4056 44.9886 28.5758 45.1701 29.7155 45.1038C30.8551 45.0376 31.942 44.7248 32.9139 44.1834C33.8858 43.642 34.7238 42.8825 35.38 41.9484C36.0363 41.0142 36.4979 39.9237 36.7385 38.7391C36.9791 37.5544 36.994 36.2989 36.7824 35.0441C36.5708 33.7893 36.1367 32.5598 35.5051 31.4259C34.8734 30.292 34.0565 29.2758 33.101 28.4354C32.1455 27.595 31.0701 26.9468 29.9362 26.5278C28.8023 26.1089 27.6321 25.9273 26.4924 25.9936C25.3528 26.0599 24.2659 26.3726 23.294 26.914ZM40.5633 17.2942C39.5914 17.8356 38.7534 18.595 38.0972 19.5292C37.441 20.4633 36.9794 21.5538 36.7387 22.7385C36.4981 23.9231 36.4832 25.1787 36.6948 26.4335C36.9065 27.6883 37.3405 28.9177 37.9721 30.0516C38.6038 31.1856 39.4207 32.2017 40.3762 33.0422C41.3317 33.8826 42.4071 34.5308 43.541 34.9497C44.6749 35.3687 45.8451 35.5502 46.9848 35.484C48.1245 35.4177 49.2113 35.1049 50.1832 34.5635C51.1552 34.0221 51.9932 33.2626 52.6494 32.3285C53.3056 31.3944 53.7672 30.3038 54.0078 29.1192C54.2484 27.9346 54.2634 26.679 54.0517 25.4242C53.8401 24.1694 53.4061 22.9399 52.7744 21.806C52.1428 20.6721 51.3259 19.6559 50.3704 18.8155C49.4148 17.9751 48.3394 17.3269 47.2055 16.9079C46.0716 16.489 44.9014 16.3074 43.7618 16.3737C42.6221 16.44 41.5353 16.7527 40.5633 17.2942ZM72.6837 51.7435C75.0736 56.0337 72.9593 60.5831 68.4101 63.1172C62.6791 66.3096 59.7 64.8206 56.6655 66.511C53.6286 68.2027 53.3584 71.5825 47.8372 74.6582C43.0782 77.3091 38.0637 76.6404 35.5021 72.0418C31.9042 65.5831 36.745 61.3381 38.407 58.0428C40.2595 54.3698 38.0568 47.7869 44.2985 44.31C50.5376 40.8345 55.5913 46.4887 59.1336 46.8009C63.0045 47.1402 68.833 44.8309 72.6837 51.7435Z" fill="#C0CDEF" fill-opacity="0.65"/>
</g>
<defs>
<clipPath id="clip0_244_1365">
<rect width="67.7759" height="67.7759" fill="white" transform="translate(0.808594 32.9746) rotate(-29.12)"/>
</clipPath>
</defs>
</svg>
