<svg xmlns="http://www.w3.org/2000/svg" aria-hidden="true">
<defs>
<symbol id="icon-heart" viewBox="0 0 32 32">
<path fill="#515151" style="fill: var(--color1, #515151)" d="M23.2 1c4.861 0 8.799 4.025 8.8 8.991 0 6.819-7.859 13.428-10.050 15.516-2.509 2.39-5.912 5.46-5.949 5.493 0 0-3.428-3.090-5.951-5.493-2.19-2.088-10.050-8.697-10.050-15.516 0-4.966 3.939-8.991 8.8-8.991 4.632 0 7.201 3.417 7.201 3.417s2.568-3.417 7.2-3.417z"></path>
</symbol>
<symbol id="icon-user" viewBox="0 0 28 32">
<path fill="#515151" style="fill: var(--color1, #515151)" d="M14 17.159c-4.412 0-13 2.582-13 7.316 0 1.961 1.118 3.74 2.919 4.644 2.356 1.183 6.163 1.881 10.098 1.881 3.575 0 7.257-0.577 10.051-1.886 1.781-0.836 2.933-2.656 2.933-4.638 0-4.734-8.588-7.317-13-7.317zM14 1c-1.722 0-3.374 0.732-4.591 2.035s-1.902 3.070-1.902 4.912c0 1.842 0.684 3.609 1.902 4.912s2.869 2.035 4.591 2.035c1.722 0 3.374-0.732 4.591-2.035s1.902-3.070 1.902-4.912c0-1.842-0.684-3.609-1.902-4.912s-2.869-2.035-4.591-2.035z"></path>
</symbol>
</defs>
</svg>