<svg xmlns="http://www.w3.org/2000/svg" aria-hidden="true">
<defs>
<symbol id="icon-Logo" viewBox="0 0 111 32">
<path d="M5.162 9.164c0.302-0.177 0.754-0.346 1.357-0.506 0.621-0.16 1.242-0.239 1.862-0.239 0.887 0 1.667 0.133 2.341 0.399 0.692 0.248 1.135 0.647 1.33 1.197 0.319 0.922 0.665 1.995 1.038 3.219s0.745 2.492 1.117 3.805c0.373 1.295 0.736 2.581 1.091 3.858 0.355 1.259 0.665 2.377 0.931 3.352-0.213 0.248-0.532 0.443-0.958 0.585-0.426 0.16-0.931 0.239-1.517 0.239-0.426 0-0.789-0.035-1.091-0.106-0.284-0.071-0.523-0.177-0.718-0.319-0.177-0.142-0.328-0.328-0.452-0.559-0.106-0.231-0.204-0.497-0.293-0.798l-0.479-1.836h-4.816c-0.142 0.532-0.284 1.082-0.426 1.65s-0.284 1.117-0.426 1.65c-0.248 0.089-0.514 0.16-0.798 0.213-0.266 0.071-0.594 0.106-0.984 0.106-0.905 0-1.579-0.151-2.022-0.452-0.426-0.319-0.639-0.754-0.639-1.304 0-0.248 0.035-0.497 0.106-0.745s0.151-0.541 0.239-0.878c0.124-0.479 0.293-1.073 0.506-1.783 0.231-0.709 0.479-1.472 0.745-2.288 0.266-0.834 0.55-1.685 0.851-2.554s0.585-1.685 0.851-2.448c0.266-0.78 0.506-1.472 0.718-2.075 0.231-0.603 0.408-1.064 0.532-1.384zM8.355 12.597c-0.248 0.745-0.532 1.579-0.851 2.501-0.302 0.905-0.576 1.827-0.825 2.767h3.299c-0.248-0.958-0.506-1.889-0.772-2.794-0.248-0.922-0.479-1.747-0.692-2.474h-0.16zM23.040 21.35c0.195 0.035 0.435 0.071 0.718 0.106 0.284 0.018 0.55 0.027 0.798 0.027 0.603 0 1.153-0.089 1.65-0.266 0.514-0.177 0.949-0.452 1.304-0.825 0.372-0.372 0.656-0.851 0.851-1.437 0.213-0.603 0.319-1.321 0.319-2.155 0-1.596-0.372-2.794-1.117-3.592-0.745-0.816-1.738-1.224-2.98-1.224-0.248 0-0.506 0.009-0.772 0.027-0.248 0.018-0.506 0.044-0.772 0.080v9.259zM24.53 25.235c-0.302 0-0.647-0.009-1.038-0.027s-0.798-0.053-1.224-0.106c-0.408-0.053-0.825-0.124-1.251-0.213-0.408-0.071-0.789-0.177-1.144-0.319-0.976-0.372-1.463-1.020-1.463-1.942v-12.425c0-0.373 0.098-0.656 0.293-0.851 0.213-0.213 0.497-0.381 0.851-0.506 0.763-0.248 1.57-0.408 2.421-0.479 0.851-0.089 1.614-0.133 2.288-0.133 1.384 0 2.634 0.169 3.752 0.506 1.135 0.337 2.102 0.86 2.9 1.57 0.816 0.692 1.446 1.57 1.889 2.634s0.665 2.324 0.665 3.778c0 1.419-0.213 2.661-0.639 3.725-0.426 1.047-1.038 1.933-1.836 2.661-0.78 0.709-1.721 1.242-2.82 1.596s-2.315 0.532-3.645 0.532z"></path>
<path d="M44.045 7.551c4.468 0 8.090 3.863 8.090 8.629s-3.622 8.629-8.090 8.629c-4.468 0-8.090-3.863-8.090-8.629s3.622-8.629 8.090-8.629zM44.243 15.833c-0.892-0.502-1.525 0.264-2.109 0.315-0.525 0.045-1.405-0.227-1.917 0.7-0.364 0.66-0.067 1.325 0.613 1.707 0.789 0.444 1.22 0.222 1.654 0.466s0.478 0.721 1.298 1.182c0.65 0.366 1.361 0.281 1.701-0.335 0.548-0.993-0.172-1.532-0.423-2.032-0.229-0.457 0.075-1.503-0.817-2.004zM47.828 16.455c-0.28-0.158-0.622-0.178-0.948-0.057s-0.613 0.374-0.794 0.703c-0.182 0.329-0.244 0.707-0.174 1.051s0.267 0.626 0.548 0.784c0.28 0.158 0.622 0.179 0.949 0.058s0.613-0.374 0.794-0.703c0.182-0.329 0.244-0.707 0.174-1.051s-0.267-0.626-0.548-0.784zM46.78 13.205c-0.163-0.010-0.33 0.016-0.492 0.075s-0.315 0.153-0.451 0.274c-0.136 0.121-0.252 0.266-0.342 0.429s-0.152 0.34-0.182 0.52-0.027 0.361 0.008 0.531c0.035 0.17 0.101 0.328 0.195 0.462s0.214 0.244 0.353 0.322c0.139 0.078 0.294 0.124 0.457 0.133s0.33-0.016 0.492-0.076 0.315-0.153 0.451-0.274c0.136-0.121 0.252-0.266 0.342-0.429s0.151-0.34 0.181-0.52 0.027-0.361-0.008-0.531c-0.035-0.17-0.101-0.327-0.195-0.462s-0.214-0.244-0.353-0.322c-0.139-0.078-0.294-0.123-0.457-0.133zM41.832 13.084c-0.281-0.158-0.622-0.179-0.949-0.058s-0.612 0.374-0.794 0.703c-0.182 0.329-0.244 0.707-0.174 1.051s0.267 0.626 0.548 0.784 0.622 0.179 0.949 0.058c0.326-0.121 0.612-0.374 0.794-0.703s0.244-0.707 0.174-1.051-0.267-0.626-0.548-0.784zM44.311 11.816c-0.163-0.010-0.33 0.016-0.492 0.076s-0.315 0.153-0.451 0.274c-0.136 0.121-0.253 0.266-0.343 0.429s-0.151 0.34-0.181 0.52-0.027 0.361 0.008 0.531c0.035 0.17 0.101 0.327 0.195 0.462s0.214 0.244 0.353 0.322c0.139 0.078 0.294 0.124 0.457 0.133s0.33-0.016 0.492-0.076c0.162-0.060 0.315-0.153 0.452-0.274s0.252-0.266 0.342-0.429c0.090-0.163 0.151-0.34 0.181-0.52s0.027-0.361-0.008-0.531c-0.035-0.17-0.101-0.328-0.195-0.462s-0.214-0.244-0.353-0.322c-0.139-0.078-0.294-0.124-0.457-0.133z"></path>
<path d="M61.342 16.162c0.745 0 1.313-0.169 1.703-0.506 0.408-0.355 0.612-0.887 0.612-1.596 0-0.674-0.213-1.188-0.639-1.543-0.408-0.373-1.011-0.559-1.809-0.559-0.284 0-0.523 0.009-0.718 0.027-0.177 0-0.364 0.018-0.559 0.053v4.124h1.41zM59.959 24.703c-0.195 0.053-0.506 0.106-0.931 0.16-0.408 0.053-0.816 0.080-1.224 0.080s-0.772-0.035-1.091-0.106c-0.302-0.053-0.559-0.16-0.772-0.319s-0.373-0.381-0.479-0.665c-0.106-0.284-0.16-0.656-0.16-1.117v-12.532c0-0.373 0.097-0.656 0.293-0.851 0.213-0.213 0.497-0.381 0.851-0.506 0.603-0.213 1.286-0.364 2.049-0.452 0.781-0.106 1.561-0.16 2.341-0.16 2.448 0 4.319 0.523 5.614 1.57s1.942 2.466 1.942 4.257c0 0.869-0.142 1.659-0.426 2.368-0.266 0.692-0.674 1.295-1.224 1.809-0.532 0.497-1.215 0.887-2.049 1.171-0.816 0.266-1.765 0.399-2.847 0.399h-1.889v4.896zM70.121 12.41c-0.124-0.195-0.239-0.461-0.346-0.798s-0.16-0.692-0.16-1.064c0-0.692 0.151-1.188 0.452-1.49 0.319-0.302 0.727-0.452 1.224-0.452h11.601c0.124 0.195 0.239 0.461 0.346 0.798s0.16 0.692 0.16 1.064c0 0.692-0.16 1.188-0.479 1.49-0.302 0.302-0.701 0.452-1.197 0.452h-2.953v12.292c-0.195 0.053-0.506 0.106-0.931 0.16-0.408 0.053-0.816 0.080-1.224 0.080s-0.772-0.035-1.091-0.106c-0.302-0.053-0.559-0.16-0.772-0.319s-0.373-0.381-0.479-0.665c-0.106-0.284-0.16-0.656-0.16-1.117v-10.323h-3.991zM88.125 24.889c-0.763 0-1.366-0.222-1.809-0.665s-0.665-1.047-0.665-1.809v-13.756c0.195-0.036 0.506-0.080 0.931-0.133 0.426-0.071 0.834-0.106 1.224-0.106 0.408 0 0.763 0.036 1.064 0.106 0.319 0.053 0.585 0.16 0.798 0.319s0.373 0.381 0.479 0.665c0.106 0.284 0.16 0.656 0.16 1.117v10.51h6.093c0.124 0.195 0.239 0.461 0.346 0.798 0.106 0.319 0.16 0.656 0.16 1.011 0 0.709-0.151 1.215-0.452 1.517-0.301 0.284-0.7 0.426-1.197 0.426h-7.131zM105.96 24.703c-0.195 0.053-0.497 0.106-0.905 0.16s-0.807 0.080-1.197 0.080c-0.816 0-1.428-0.133-1.836-0.399-0.408-0.284-0.612-0.869-0.612-1.756v-3.592c-0.443-0.656-0.922-1.384-1.437-2.182s-1.020-1.614-1.517-2.448c-0.497-0.834-0.958-1.65-1.384-2.448-0.426-0.816-0.772-1.561-1.038-2.235 0.231-0.319 0.541-0.612 0.931-0.878 0.408-0.266 0.905-0.399 1.49-0.399 0.692 0 1.251 0.142 1.676 0.426 0.444 0.284 0.86 0.816 1.251 1.596l2.208 4.443h0.16c0.248-0.55 0.461-1.047 0.639-1.49 0.195-0.461 0.381-0.913 0.559-1.357 0.178-0.461 0.364-0.931 0.559-1.41 0.195-0.497 0.417-1.064 0.665-1.703 0.319-0.16 0.674-0.284 1.064-0.373s0.763-0.133 1.117-0.133c0.621 0 1.144 0.169 1.57 0.506 0.444 0.319 0.665 0.807 0.665 1.463 0 0.213-0.044 0.47-0.133 0.772s-0.293 0.763-0.612 1.384c-0.319 0.603-0.789 1.428-1.41 2.474-0.603 1.047-1.428 2.412-2.474 4.097v5.401z"></path>
</symbol>
<symbol id="icon-up" viewBox="0 0 28 32">
<path d="M15.705 29.637c0 0.942-0.763 1.705-1.705 1.705s-1.705-0.763-1.705-1.705h3.411zM12.794 1.147c0.666-0.666 1.746-0.666 2.412 0l10.852 10.852c0.666 0.666 0.666 1.746 0 2.412s-1.746 0.666-2.412 0l-9.646-9.646-9.646 9.646c-0.666 0.666-1.746 0.666-2.412 0s-0.666-1.746 0-2.412l10.852-10.852zM14 29.637h-1.705v-27.284h3.411v27.284h-1.705z"></path>
</symbol>
<symbol id="icon-tiktok" viewBox="0 0 32 32">
<path fill="#515151" style="fill: var(--color1, #515151)" d="M16.302 11.892c-0.028 11.259 0.009 10.364-0.463 11.318-0.416 0.842-1.044 1.468-1.885 1.879-0.707 0.346-1.089 0.433-1.889 0.432-0.78-0.001-1.173-0.089-1.833-0.41-0.84-0.409-1.515-1.078-1.916-1.9-0.325-0.666-0.413-1.050-0.413-1.82-0.001-0.798 0.086-1.167 0.45-1.902 0.219-0.443 0.337-0.601 0.764-1.022 0.551-0.544 1.052-0.846 1.782-1.073 0.535-0.166 1.417-0.206 1.972-0.089 0.229 0.049 0.448 0.088 0.486 0.088 0.054 0 0.069-0.499 0.069-2.313v-2.313l-0.264-0.044c-0.145-0.024-0.664-0.042-1.153-0.040-1.429 0.007-2.553 0.258-3.791 0.849-4.877 2.328-6.531 8.222-3.556 12.673 0.514 0.769 1.624 1.878 2.375 2.374 2.319 1.531 5.118 1.927 7.777 1.101 2.382-0.74 4.512-2.676 5.469-4.971 0.248-0.595 0.437-1.249 0.561-1.94 0.091-0.509 0.098-0.981 0.084-6.079-0.008-3.041 0.003-5.528 0.024-5.528s0.13 0.071 0.241 0.158c0.627 0.491 1.889 1.162 2.854 1.518 1.079 0.398 2.615 0.695 3.6 0.695h0.499l-0.029-4.549-0.537-0.035c-1.703-0.11-3.25-0.815-4.525-2.061-1.24-1.212-1.968-2.77-2.108-4.508l-0.039-0.483h-4.583l-0.025 9.995z"></path>
</symbol>
<symbol id="icon-facebook" viewBox="0 0 32 32">
<path fill="#515151" style="fill: var(--color1, #515151)" d="M18.428 1.947c-1.665 0.25-2.835 0.791-3.795 1.756-0.808 0.812-1.312 1.765-1.597 3.019-0.108 0.474-0.122 0.76-0.144 2.991l-0.025 2.468h-4.56v5.017l4.54 0.029 0.015 6.438 0.015 6.438h5.436v-12.903h2.255c1.241 0 2.256-0.006 2.257-0.014 0.151-1.004 0.666-4.934 0.65-4.963-0.013-0.023-1.181-0.041-2.597-0.041h-2.574l0.019-2.054c0.019-2.009 0.023-2.061 0.156-2.38 0.271-0.647 0.841-1.029 1.692-1.134 0.233-0.029 1.121-0.053 1.972-0.054l1.548-0.002-0.015-2.247-0.015-2.247-0.752-0.065c-1.233-0.107-3.906-0.137-4.482-0.051z"></path>
</symbol>
<symbol id="icon-instagram" viewBox="0 0 32 32">
<path fill="#515151" style="fill: var(--color1, #515151)" d="M7.959 1.978c-1.578 0.235-2.823 0.865-3.97 2.009-1.168 1.164-1.815 2.481-2.028 4.129-0.083 0.645-0.083 15.12 0 15.764 0.213 1.647 0.857 2.957 2.030 4.13s2.482 1.817 4.129 2.030c0.644 0.083 15.118 0.083 15.762 0 1.647-0.213 2.956-0.857 4.129-2.030s1.817-2.483 2.030-4.13c0.083-0.644 0.083-15.12 0-15.764-0.213-1.648-0.86-2.965-2.028-4.129-1.18-1.176-2.486-1.818-4.131-2.031-0.706-0.091-15.298-0.071-15.923 0.022zM24.409 6.805c1.192 0.567 1.318 2.25 0.224 2.985-0.394 0.265-0.642 0.332-1.108 0.302-0.638-0.042-1.152-0.378-1.456-0.952-0.126-0.238-0.146-0.343-0.147-0.771-0.001-0.582 0.11-0.87 0.481-1.24 0.28-0.28 0.477-0.387 0.867-0.472 0.406-0.088 0.73-0.046 1.138 0.148zM17.129 10.25c1.779 0.338 3.302 1.496 4.116 3.132 0.424 0.852 0.603 1.628 0.603 2.617 0 1.553-0.535 2.912-1.58 4.015-1.149 1.212-2.597 1.834-4.269 1.834-2.834 0-5.166-1.912-5.756-4.72-0.123-0.586-0.123-1.673 0-2.258 0.241-1.145 0.721-2.078 1.487-2.885 0.487-0.514 0.898-0.83 1.474-1.136 1.267-0.672 2.526-0.864 3.924-0.598z"></path>
</symbol>

<symbol id="icon-heart" viewBox="0 0 32 32">
<path fill="#515151" style="fill: var(--color1, #515151)" d="M23.2 1c4.861 0 8.799 4.025 8.8 8.991 0 6.819-7.859 13.428-10.050 15.516-2.509 2.39-5.912 5.46-5.949 5.493 0 0-3.428-3.090-5.951-5.493-2.19-2.088-10.050-8.697-10.050-15.516 0-4.966 3.939-8.991 8.8-8.991 4.632 0 7.201 3.417 7.201 3.417s2.568-3.417 7.2-3.417z"></path>
</symbol>
<symbol id="icon-user" viewBox="0 0 28 32">
<path fill="#515151" style="fill: var(--color1, #515151)" d="M14 17.159c-4.412 0-13 2.582-13 7.316 0 1.961 1.118 3.74 2.919 4.644 2.356 1.183 6.163 1.881 10.098 1.881 3.575 0 7.257-0.577 10.051-1.886 1.781-0.836 2.933-2.656 2.933-4.638 0-4.734-8.588-7.317-13-7.317zM14 1c-1.722 0-3.374 0.732-4.591 2.035s-1.902 3.070-1.902 4.912c0 1.842 0.684 3.609 1.902 4.912s2.869 2.035 4.591 2.035c1.722 0 3.374-0.732 4.591-2.035s1.902-3.070 1.902-4.912c0-1.842-0.684-3.609-1.902-4.912s-2.869-2.035-4.591-2.035z"></path>
</symbol>
</defs>
</svg>